<?xml version="1.0" encoding="UTF-8" standalone="no"?>
<svg width="287px" height="439px" viewBox="0 0 287 439" version="1.1" xmlns="http://www.w3.org/2000/svg" xmlns:xlink="http://www.w3.org/1999/xlink" xmlns:sketch="http://www.bohemiancoding.com/sketch/ns">
    <!-- Generator: Sketch 3.3.3 (12081) - http://www.bohemiancoding.com/sketch -->
    <title>ShowcaseLogo</title>
    <desc>Created with Sketch.</desc>
    <defs></defs>
    <g id="Page-1" stroke="none" stroke-width="1" fill="none" fill-rule="evenodd" sketch:type="MSPage">
        <g id="ShowcaseLogo" sketch:type="MSLayerGroup" transform="translate(0.000000, -3.000000)">
            <path d="M0.857282556,404.740375 C1.0521189,393.161673 111.96746,381.802724 147.832142,390.810194 C183.696824,399.817664 146.980198,441.439371 146.980198,441.439371 C146.980198,441.439371 0.662446217,416.319078 0.857282556,404.740375 Z" id="Ground-Shadow" fill-opacity="0.25" fill="#000000" sketch:type="MSShapeGroup"></path>
            <g id="Pedestal-Base-lg" transform="translate(108.000000, 393.000000)" stroke="#9C752F" sketch:type="MSShapeGroup">
                <path d="M90.9873047,0.451026375 L141.982422,13.9899645 L40.8466797,21.3438333 L0.761718736,2.59518387 L90.9873047,0.451026375 Z" id="Rectangle-1" fill="#DDA43E"></path>
                <path d="M1.45449704,2.25513213 L40.9600969,20.5431025 L40.960097,48.862554 L1.45449704,21.8742728 L1.45449704,2.25513213 Z" id="Rectangle-1" fill="#9C7530"></path>
                <path d="M141.163947,13.8117936 L141.163947,38.5856674 L40.6426987,48.4441074 L40.6426987,21.009872 L141.163947,13.8117936 Z" id="Path" fill="#BF903C"></path>
            </g>
            <g id="Pedestal-Base-sm" transform="translate(126.000000, 386.000000)" stroke="#9C7530" sketch:type="MSShapeGroup">
                <path d="M26.3833008,8.17738409 L26.3833008,24.0053923 L0.274414062,10.9205163 L0.274414062,0.871210513 L26.3833008,8.17738409 Z" id="Rectangle-1-Copy" fill="#9C7530"></path>
                <path d="M26,23.9130435 L26,7.69093069 L79.059526,5.80642354 L92.3251953,5.33526877 L92.3251953,19.1634468 L26,23.9130435 Z" id="Path-Copy" fill="#BF903C"></path>
                <path d="M0.274414062,0.908627717 L71.065918,0.908627717 L92.5195312,5.5579144 L27.0625,8.78587806 L0.274414062,0.908627717 Z" id="Rectangle-1-Copy-2" fill="#DDA43E"></path>
            </g>
            <g id="Pedestal-Pillar" transform="translate(147.000000, 116.000000)" sketch:type="MSShapeGroup">
                <path d="M48,0 L1,0 L1,272 C1,274.209139 11.5213084,276 24.5,276 C37.4786916,276 48,274.209139 48,272 L48,0 Z" id="Pedestal" stroke="#9C7530" fill="#BF903C"></path>
                <path d="M47.2596473,5.56054688 C47.2596473,5.56054688 27.4863281,6.56054671 27.4863281,6.56054688 C27.486328,6.56054671 27.4863281,275.880859 27.4863281,275.880859 C39.4589844,275.880859 48,274.209139 48,272 C48,271.6547 47.2596473,5.56054688 47.2596473,5.56054688 Z" id="Pedestal-Highlight" stroke="#BF903C" fill="#DDA43E"></path>
                <path d="M7.81433482,23.3413146 C7.81433482,23.3413146 0.486328144,10.5117186 0.486328121,10.5117188 C0.486328041,10.5117186 0.486328121,274.177734 0.486328121,274.177734 C0.486328121,274.177734 8.55468746,274.177734 8.5546875,271.27564 C8.55468746,271.27564 7.81433482,23.3413146 7.81433482,23.3413146 Z" id="Pedestal-Shadow" stroke="#9C7530" fill="#9C7530" transform="translate(4.520508, 142.344727) scale(-1, 1) translate(-4.520508, -142.344727) "></path>
                <path d="M15.5839844,275.177734 L15.5839844,33.5" id="Pedestal-Groove" stroke="#9C7530"></path>
                <path d="M27.5839844,275.177734 L27.5839844,27.5" id="Pedestal-Groove" stroke="#9C7530"></path>
                <path d="M38.5839844,275.177734 L38.5839844,21.5" id="Pedestal-Groove" stroke="#BF903C"></path>
                <path d="M45.5839844,273.5 L45.5839844,16.5" id="Pedestal-Groove" stroke="#BF903C"></path>
                <path d="M2.12304688,69.3925781 C32.7848988,76.0507824 40.375,29.261719 47.6289062,46.3961042 C47.6289062,46.3961042 48.7489891,6.39062499 32.784898,27.1533203 C2.12304688,40.0722666 2.12304688,58.6894544 2.12304688,69.3925781 Z" id="Pedestal-Shadow" fill="#9C7530"></path>
            </g>
            <g id="Mask-Base" transform="translate(64.000000, 21.000000)" sketch:type="MSShapeGroup">
                <path d="M6.67953481,125.473012 C12.3053309,133.639243 57.5239755,153.404129 70.045896,153.404292 C80.7672118,153.40413 99.6826129,146.322258 99.6826148,146.322261 C118.501951,140.560542 123.436922,123.135529 136.456534,120.356754 C142.499087,120.380826 147.283208,129.593753 154.846586,137.549749 C161.928716,146.322261 179.95215,146.32226 179.952154,146.322261 C187.664255,147.367972 214.326399,126.14787 217.942849,119.308995 C226.896741,103.399418 218.052932,58.9397937 210.400113,42.6250659 C207.46438,36.3595708 180.709852,20.4809743 149.429913,11.6718501 C149.42991,11.67185 136.456539,8.49408748 126.123765,8.68462534 C65.423736,9.80394278 23.3780417,23.3665234 18.4131116,30.9644458 C6.50828742,49.8012776 -7.2492552,105.750866 6.67953481,125.473012 Z" id="Base" stroke="#BF903C" fill="#FAC833"></path>
                <path d="M136.456534,120.356754 C142.499087,120.380826 147.283208,129.593753 154.846586,137.549749 C161.928716,146.322261 179.95215,146.32226 179.952154,146.322261 C187.664255,147.367972 214.326399,126.14787 217.942849,119.308995 C226.896741,103.399418 218.052932,58.9397937 210.400113,42.6250659 C207.46438,36.3595708 180.709852,20.4809743 149.429913,11.6718501 C149.42991,11.67185 125.517578,6.57519525 117.146484,9.56738281 C154.537994,44.5791665 123.436922,123.135529 136.456534,120.356754 Z" id="Base-Lighted" fill="#FFD938"></path>
                <path d="M6.67953481,125.473012 C12.3053309,133.639243 57.5239755,153.404129 70.045896,153.404292 C80.7672118,153.40413 99.6826129,146.322258 99.6826148,146.322261 C107.441075,143.946935 1.2109375,167.458987 22.1562495,69.794925 C25.1855464,53.1191399 34.0156264,44.2089837 34.0156264,44.2089837 C48.1015639,27.6855462 78.3439739,22.1548442 83.7539039,20.589843 C107.755857,13.6464846 83.7539039,0.886718733 83.7539039,0.886718733 C83.7539039,0.886718733 23.3780417,23.3665234 18.4131116,30.9644458 C6.50828742,49.8012776 -7.2492552,105.750866 6.67953481,125.473012 Z" id="Base-Shadow" stroke="#BF903C" fill="#BF903C"></path>
                <path d="M217.942849,119.308995 C226.896741,103.399418 218.052932,58.9397937 210.400113,42.6250659 C207.46438,36.3595708 204.337891,42.6250658 214.534036,73.6035149 C220.158203,103.339844 214.326399,126.14787 217.942849,119.308995 Z" id="Right-Rim-Highlight" fill="#FFEFAB"></path>
                <path d="M138.238281,115.638672 L138.414062,106.929688 C138.414062,106.929688 149.617425,118.138672 149.578125,128.246094 C149.617425,124.755859 138.238281,115.638672 138.238281,115.638672 Z" id="Nose-Highlight" fill="#FFEFAB"></path>
                <path d="M136.380859,61.4667969 C136.380859,61.4667969 120.902344,47.4277345 120.902344,47.578125 C136.380859,41.0898436 138.628906,42.6796875 149.646484,49.0800781 L136.380859,61.4667969 Z" id="Forehead-Highlight" fill="#FFEFAB"></path>
                <path d="M191.786133,94.9794922 C199.283203,93.1201172 198.798708,92.0422149 203.811523,87.5712891 C206.514648,93.4060273 202.119141,97.7474324 195.511719,105 C195.511719,104.935843 191.786133,94.9794922 191.786133,94.9794922 Z" id="Rembrandt-Triangle" fill="#FFEFAB"></path>
                <path d="M136.830078,68.2578125 C155.730469,37.0136719 188.290527,57.5283203 188.290527,57.5283203 L175.523438,77.2753897 L102.833984,77.1914063 C102.833984,77.1914063 35.4160161,74.1171883 35.4160156,74.1171875 C91.5097656,12.2304718 136.830078,68.2578115 136.830078,68.2578125 Z" id="Eye-Socket-Shadow" fill="#C0903C"></path>
                <path d="M155.822266,109.374999 C145.267578,100.048829 139.902344,83.6992197 135.560547,82.6308594 C126.657227,84.9531259 128.160156,94.7822275 118.679688,99.9394541 C118.679688,99.9394541 104.824219,91.8242197 104.824219,83.6992188 C104.824219,83.6992188 107.716797,56.5234375 136.060547,68.4394531 C136.060547,68.4394531 152.904297,43.5175789 163.398438,68.4394536 C166.247402,70.0570174 169.601562,83.6992192 169.601562,83.6992192 C169.601562,83.6992192 169.601562,95.0195322 155.822266,109.374999 Z" id="Nose-Bridge-Highlight" fill="#FFD938"></path>
                <path d="M155.822266,109.374999 C145.267578,100.048829 135.560547,82.6308594 135.560547,82.6308594 L136.060547,68.4394531 C136.060547,68.4394531 152.904297,43.5175789 163.398438,68.4394536 C166.247402,70.0570174 169.601562,83.6992192 169.601562,83.6992192 C169.601562,83.6992192 169.601562,95.0195322 155.822266,109.374999 Z" id="Nose-Bridge-Highlight-Copy" fill="#FFEFAB"></path>
            </g>
            <g id="Left-Twig" transform="translate(122.996531, 36.640053) scale(-1, 1) rotate(-8.000000) translate(-122.996531, -36.640053) translate(66.996531, 8.140053)" sketch:type="MSShapeGroup">
                <path d="M86.2941932,43.9402696 C81.297389,39.2868281 57.870165,15.8459348 40.0895531,5.89873935 C40.0895531,5.89873949 32.6375663,1.56544351 22.545212,1.01542577 C9.55838165,0.306825919 -0.516914784,7.32750699 0.0695473472,17.0222112 C0.656009478,26.7139538 11.6695503,35.1663893 24.6689793,35.9021839 C35.0391142,36.4877675 43.236946,32.7355694 46.1778268,25.5882977 C79.335994,46.0526629 87.2101467,55.3639835 99.4110554,55.9920872 C106.344084,56.3482406 111.710856,52.5699507 111.398077,47.5527734 C111.085297,42.5347537 106.222098,38.1303989 98.2783795,37.7604554 C90.3346614,37.3901173 88.5076924,40.9543897 86.2941932,43.9402696 Z" id="Branch-base" stroke="#BF903C" stroke-width="0.96759258" fill="#FFD938"></path>
                <path d="M46.0612493,25.9254309 C49.0585697,13.8251334 33.6607733,10.3254746 33.6607736,10.3254718 C22.1698202,8.31030399 18.1315271,16.1920318 17.6300812,19.1714433 C16.4291273,26.3102881 22.0009154,30.1804106 28.3776358,30.9185223 C35.0643454,31.6907488 37.0419023,27.8056667 37.0419023,27.8056667" id="Head-curl" stroke="#BF903C" stroke-width="0.96759258"></path>
                <path d="M86.9083539,43.3416068 C85.2278018,46.0312436 85.5975727,49.265901 90.492165,51.2730241 C95.1888059,53.341915 99.5159034,52.6651228 101.430831,49.4608237 C103.452807,46.2241483 102.327638,43.2732074 97.9352886,42.9608899 C95.111487,42.7660555 91.612313,43.1426405 90.9783205,45.7892393" id="Tail-curl" stroke="#BF903C" stroke-width="0.725694435"></path>
                <ellipse id="Highlight" fill="#FFEFAB" transform="translate(23.728483, 16.271696) rotate(218.000000) translate(-23.728483, -16.271696) " cx="23.7284833" cy="16.2716964" rx="2" ry="3.5"></ellipse>
                <path d="M10.4398993,11.6897868 C15.410462,11.6897868 19.4398993,14.7938557 19.4398993,11.6897868 C16.0340615,4.66547304 11.6097691,4.94558396 11.3936582,5.17113489 C6.9978887,4.50331491 1.43989926,8.58571799 1.43989926,11.6897868 C1.43989926,14.7938557 5.46933651,11.6897868 10.4398993,11.6897868 Z" id="Highlight" fill="#FFEFAB" transform="translate(10.439899, 9.078149) scale(-1, 1) rotate(35.000000) translate(-10.439899, -9.078149) "></path>
            </g>
            <g id="Right-Twig" transform="translate(251.116016, 46.135045) rotate(-8.000000) translate(-251.116016, -46.135045) translate(220.616016, 22.135045)" sketch:type="MSShapeGroup">
                <path d="M21.8032305,4.98285305 C21.8032305,4.98285317 17.7503695,1.32238 12.26151,0.857762498 C5.19845153,0.259185629 -0.281130901,6.1897786 0.0378242391,14.3792041 C0.35677938,22.5661278 6.34663836,29.7061694 13.4165487,30.3277185 C19.0564829,30.8223797 23.5149815,27.6527784 25.1144182,21.6152503 C43.1479234,38.9021515 47.4303849,46.7677206 54.0660095,47.2982999 C57.8366283,47.599154 60.7554179,44.4075121 60.5853085,40.1693426 C60.4151991,35.9304615 57.7702844,32.2099627 53.4499888,31.8974596 C49.1296932,31.5846233 48.1360722,34.5954777 46.9322315,37.1177456 C44.2146539,33.1868353 31.4734501,13.3855659 21.8032305,4.98285305 Z" id="Branch-base" stroke="#BF903C" stroke-width="0.96759258" fill="#FFD938"></path>
                <path d="M24.8409297,22.4044837 C27.4802896,10.7054022 17.9048666,9.88552132 17.9048669,9.88551909 C10.7433144,8.30445114 7.96793822,14.4883268 7.56308638,16.8259247 C6.59337705,22.4269464 9.97881927,25.4633817 13.9644521,26.0424922 C18.1438902,26.6483685 19.5037595,23.6001962 19.5037595,23.6001962" id="Head-curl" stroke="#BF903C" stroke-width="0.96759258"></path>
                <path d="M46.9579935,36.8903822 C46.4606365,39.1624042 47.6168726,41.8948223 51.3994052,43.5903031 C54.8589274,45.3379612 57.5320156,44.7662533 58.4192736,42.0594797 C59.5095289,39.3253569 58.4147402,36.8326031 55.1006224,36.5687785 C52.9557562,36.4041957 50.4129448,36.7223091 50.5196521,38.9579754" id="Tail-curl" stroke="#BF903C" stroke-width="0.725694435"></path>
                <path d="M24.5305773,14.9993716 C24.5305773,13.066375 22.2920011,11.4993716 19.5305773,11.4993716 C16.7691536,11.4993716 14.5305773,13.066375 14.5305773,14.9993716 C14.5305773,16.9323682 24.5305773,16.9323682 24.5305773,14.9993716 Z" id="Highlight" fill="#FFEFAB" transform="translate(19.530577, 13.974245) rotate(31.000000) translate(-19.530577, -13.974245) "></path>
                <ellipse id="Highlight" fill="#FFEFAB" cx="55.6391731" cy="38.0097319" rx="1.5" ry="1"></ellipse>
            </g>
            <g id="Chin-Twig" transform="translate(58.000000, 65.000000)" sketch:type="MSShapeGroup">
                <path d="M55.7532794,124 C52.5758309,124 50,121.704254 50,118.872307 C50,115.479717 56.3175352,110.944368 62.0586868,114.022266 C67.7998384,117.100164 63.741635,115.257839 68,116.755677 C65.1828011,116.755677 62.9437909,120.928148 62.9437909,120.928148 C60.2649302,124 57.778601,124 55.7532794,124 Z" id="Chin-Leaf-Copy" fill="#BF903C" transform="translate(59.000000, 118.500000) rotate(86.000000) translate(-59.000000, -118.500000) "></path>
                <path d="M38,107 C38,101.477153 42.4771525,97 48,97 C53.5228475,97 58,101.477153 58,107 C58,112.522847 53.5228475,117 48,117 C47.7483478,117 47.4988668,116.990704 47.2518815,116.972438 C21.0376796,117.692174 10.1963216,90.3158332 8.11230481,82.8748252 C-5.47819129,34.349789 6.4062502,10.8659207 6.4062502,10.8659207 C6.4062502,10.8659207 13.1630863,-3.94824219 29.7978366,4.57421875 C22.5986179,13.2700797 16.7382813,29.67619 21.2226562,70.9436809 C21.222657,70.9436809 23.4089538,96.9752059 38.066028,108.155404 C38.0224145,107.776315 38,107.390775 38,107 Z" id="Twig" stroke="#BF903C" fill="#F9C834"></path>
                <path d="M41.0146489,116.384277 C25.5952153,116.384277 10.6386722,95.1113281 8.11230481,82.8748252 C-4.69335937,41.5800781 2.94726559,16.8408203 6.4062502,10.8659207 L14.5449223,0.451171846 C-3.9179688,44.8183593 8.62939448,92.2050781 27.4711918,108.168945 C27.4711918,108.168945 30.8750004,112.843262 41.0146489,116.384277 Z" id="Twig-Shadow" fill="#BF903C"></path>
                <path d="M47.8998285,116.65066 C53.422676,116.65066 57.8998285,112.173508 57.8998285,106.65066 C57.8998285,101.127813 53.422676,96.6506603 47.8998285,96.6506603 C42.376981,96.6506603 39.2182921,99.212098 39.2182921,105.456597 C39.2182921,111.701096 51.2145852,116.422308 53.6521281,108.301294 C53.6521281,108.301294 53.7656993,101.735923 47.8998288,101.735923" id="Tail-curl" stroke="#BF903C" transform="translate(48.559060, 106.650660) rotate(-32.000000) translate(-48.559060, -106.650660) "></path>
                <path d="M66.5115225,121.423652 C62.0932445,121.423652 58.5115225,118.289645 58.5115225,114.423652 C58.5115225,109.792304 67.2961266,103.600934 75.2792627,107.802684 C83.2623989,112.004434 77.6194212,109.48941 83.5407259,111.534163 C79.6233789,111.534163 76.51001,117.230156 76.51001,117.230155 C72.7850239,121.423651 69.327755,121.423652 66.5115225,121.423652 Z" id="Chin-Leaf" stroke="#BF903C" fill="#F9C834" transform="translate(71.026124, 113.915402) rotate(40.000000) translate(-71.026124, -113.915402) "></path>
                <path d="M72.4535444,110.993057 C74.9041532,107.920116 76.9535444,109.993057 76.9535444,108.993057 C76.9535444,107.993057 74.9388258,106.993057 72.4535444,106.993057 C69.9682631,106.993057 67.9535444,107.888488 67.9535444,108.993057 C67.9535444,110.097627 69.2449282,112.085837 72.4535444,110.993057 Z" id="Leaf-Highlight" fill="#FFD938" transform="translate(72.453544, 109.151949) rotate(40.000000) translate(-72.453544, -109.151949) "></path>
                <circle id="Chin-berry-lg-Copy" stroke="#BF903C" fill="#F9C834" transform="translate(55.000000, 117.000000) rotate(-1.000000) translate(-55.000000, -117.000000) " cx="55" cy="117" r="4"></circle>
                <circle id="Chin-berry-lg-Copy-2" stroke="#BF903C" fill="#F9C834" transform="translate(59.000000, 113.000000) rotate(-1.000000) translate(-59.000000, -113.000000) " cx="59" cy="113" r="4"></circle>
                <circle id="Chin-berry-lg" stroke="#BF903C" fill="#FFD938" transform="translate(61.000000, 107.000000) rotate(-1.000000) translate(-61.000000, -107.000000) " cx="61" cy="107" r="4"></circle>
                <ellipse id="Chin-berry-Highlight" fill="#FFEFAB" cx="61.537849" cy="105.440187" rx="1.5" ry="1.12231615"></ellipse>
            </g>
            <path d="M155.831055,77.4306641 C155.831055,77.430664 146.96097,74 140.977757,74 C131.295712,74 123.839256,76.504456 115.554552,81.6816406 C107.269848,86.8588252 97.9121096,95 97.9121096,95 C97.9121096,95 109.362262,106.335422 113.503906,110.169922 C117.268067,113.654932 124.6355,116 130.729764,116 C134.210436,116 141.720333,115.072767 145.157227,113.827148 C155.770523,110.169922 153.779297,108.710938 163.899414,106.37207 L177.250977,103.402344 C177.250977,103.402344 174.854492,88.7275391 155.831055,77.4306641 Z" id="Left-Eye" fill="#000000" sketch:type="MSShapeGroup"></path>
            <path d="M241.503266,76.6509581 C247.486078,76.1563849 252.440656,77.9224824 258.439696,82.0306913 C264.657538,86.2586037 272.413315,93.2814752 272.413315,93.2814752 C272.413315,93.2814752 266.713852,103.89068 264.445422,107.413165 C262.31347,110.576866 257.335908,112.642991 252.917223,112.579947 C250.39354,112.538342 244.862251,111.634683 242.273574,110.520882 C234.428271,107.319989 234.364239,106.384899 228.517075,104.128944 L219.157413,101.688473 C219.157413,101.688473 223.282334,89.5058183 230.965087,82.0691103 C236.5625,76.6509581 237.806068,76.9485052 241.503266,76.6509581 Z" id="Right-Eye" fill="#000000" sketch:type="MSShapeGroup"></path>
            <path d="M262.836914,85.2412109 C270.303711,90.3388672 272.413315,93.2814752 272.413315,93.2814752 C272.413315,93.2814752 272.413315,100.651367 262.836914,109.182617 L262.836914,85.2412109 Z" id="Inner-Right-Eye" fill="#775923" sketch:type="MSShapeGroup"></path>
            <g id="Center-Feather" transform="translate(62.000000, 3.000000)" sketch:type="MSShapeGroup">
                <path d="M1.43945312,19.4648438 C-2.0139225,30.7749283 15.7099609,61.6884766 15.7099609,61.6884766 C15.7099609,61.6884766 32.0710541,29.2094345 28.6855469,19.1923828 C25.3000396,9.17533111 15.7099613,0.62109375 15.7099613,0.62109375 C15.7099613,0.62109375 4.89282875,8.15475917 1.43945312,19.4648438 Z" id="Feather" stroke="#BF903C" fill="#FFD938"></path>
                <path d="M8.22190416,25.5657653 C6.50463679,31.307171 15.3182296,47 15.3182296,47 C15.3182296,47 23.4541449,30.51247 21.7706266,25.4274543 C20.0871083,20.3424386 15.3182298,16 15.3182298,16 C15.3182298,16 9.93917153,19.8243595 8.22190416,25.5657653 Z" id="Shadow" fill="#F9C834"></path>
                <path d="M15.3182296,47 C15.3182296,47 23.4541449,30.51247 21.7706266,25.4274543 C20.0871083,20.3424386 15.3182297,16 15.3182298,16 C20.7421875,31.5 15.3182296,47 15.3182296,47 Z" id="Shadow-Copy" fill="#BF903C"></path>
                <path d="M16.5351562,2.47851562 L16.5585938,7.13671875 L25.9628906,18.2148438 L16.5351562,2.47851562 Z" id="Highlight" fill="#FFEFAB"></path>
            </g>
            <path d="M37,28.2183822 C43.3713236,29.0529337 46.4911238,25.0995085 60.3769397,28.2183822 C68.2419098,30.7687031 72.4729889,32.0500585 79.0087096,40.5639886 C85.5444302,49.0779187 82.0853861,56.4974664 82.0853861,56.4974664 C81.2918957,59.098566 78.9353891,61 76.1311859,61 C72.8055315,61 70.1095559,58.3256606 70.1095559,55.0266958 C70.1095559,52.3044853 71.9452657,50.0075868 74.455705,49.2876632 C70.9121702,43.1082128 63.0090506,44.8238575 56.5514797,44.0000004 C50.0939089,43.1761433 38.7547406,37.861224 37,28.2183822 Z" id="Left-Feather-med-Copy" stroke="#BF903C" stroke-width="0.8" fill="#F9C834" sketch:type="MSShapeGroup" transform="translate(60.000000, 44.000000) rotate(21.000000) translate(-60.000000, -44.000000) "></path>
            <path d="M66,30.2183822 C72.3713236,31.0529337 75.4911238,27.0995085 89.3769397,30.2183822 C97.2419098,32.7687031 101.472989,34.0500585 108.00871,42.5639886 C114.54443,51.0779187 111.085386,58.4974664 111.085386,58.4974664 C110.291896,61.098566 107.935389,63 105.131186,63 C101.805531,63 99.1095559,60.3256606 99.1095559,57.0266958 C99.1095559,54.3044853 100.945266,52.0075868 103.455705,51.2876632 C99.9121702,45.1082128 92.0090506,46.8238575 85.5514797,46.0000004 C79.0939089,45.1761433 67.7547406,39.861224 66,30.2183822 Z" id="Right-Feather-med" stroke="#BF903C" stroke-width="0.8" fill="#FFD938" sketch:type="MSShapeGroup" transform="translate(89.000000, 46.000000) scale(-1, 1) rotate(21.000000) translate(-89.000000, -46.000000) "></path>
            <path d="M78.6894532,42.5400391 C90.275879,31.0146484 100.342773,30.7080078 100.342773,30.7080078 C100.342773,30.7080078 99.3740235,37.8378906 88.4570313,44.8378906 C77.5400391,51.8378906 81.8525391,54.3330078 78.6894532,42.5400391 Z" id="Right-Feather-shadow" stroke="#F9C834" fill="#F9C834" sketch:type="MSShapeGroup"></path>
            <path d="M48.6894532,40.5400391 C60.275879,29.0146484 70.3427735,28.7080078 70.3427735,28.7080078 C70.3427735,28.7080078 69.3740235,35.8378906 58.4570313,42.8378906 C47.5400391,49.8378906 51.8525391,52.3330078 48.6894532,40.5400391 Z" id="Left-Feather-shadow-Copy" fill="#BF903C" sketch:type="MSShapeGroup" transform="translate(59.516113, 38.722265) scale(-1, 1) translate(-59.516113, -38.722265) "></path>
            <g id="Ruby" transform="translate(76.865206, 47.188748) rotate(34.000000) translate(-76.865206, -47.188748) translate(67.865206, 38.188748)" sketch:type="MSShapeGroup">
                <circle id="Gem-Shadow" fill="#BF903C" cx="12.1462905" cy="12.7145324" r="5"></circle>
                <circle id="Center" fill="#D30000" cx="8" cy="8" r="6"></circle>
                <path d="M6.60531305,14.0167393 L8.32745565,10.7950708 L10.4441858,10.7950708 L12.560916,10.7950708 L14.2830586,14.0167393 L6.60531305,14.0167393 Z" id="Bottom" stroke="#7E0202" stroke-width="0.569999993" fill="#8B0202" transform="translate(10.444186, 12.405905) scale(-1, 1) rotate(28.000000) translate(-10.444186, -12.405905) "></path>
                <path d="M0.836082284,14.0167393 L2.55822488,10.7950708 L4.67495508,10.7950708 L6.79168528,10.7950708 L8.51382787,14.0167393 L0.836082284,14.0167393 Z" id="Bottom-Left" stroke="#7E0202" stroke-width="0.569999993" fill="#8B0202" transform="translate(4.674955, 12.405905) rotate(28.000000) translate(-4.674955, -12.405905) "></path>
                <path d="M11.7728955,7.74986243 L11.7841657,9.84611397 L14.9062012,11.6078213 L14.8653221,4.0043553 L11.7616252,5.65361088 L11.7728955,7.74986243 Z" id="Bottom-Right" stroke="#7E0202" stroke-width="0.569999993" fill="#8B0202"></path>
                <path d="M14.5899502,3.64300729 L11.5569068,5.67907476 L9.68794498,4.68533013 L7.81898314,3.69158549 L7.81090323,0.0385240744 L14.5899502,3.64300729 Z" id="Top-Right" stroke="#F9C3C3" stroke-width="0.569999993" fill="#FF5858"></path>
                <path d="M3.5216428,5.65361088 L3.51948779,7.74986243 L3.51733277,9.84611397 L0.262380132,11.6078213 L0.270196747,4.0043553 L3.5216428,5.65361088 Z" id="Top-Left" stroke="#BD0000" stroke-width="0.569999993" fill="#A80000"></path>
                <path d="M0.529190714,3.64300729 L3.56223412,5.67907476 L5.43119595,4.68533013 L7.30015778,3.69158549 L7.3082377,0.0385240744 L0.529190714,3.64300729 Z" id="Top" stroke="#FF9E9E" stroke-width="0.569999993" fill="#FF5959"></path>
            </g>
            <g id="Left-Feather-lg" transform="translate(19.000000, 32.000000)" stroke="#BF903C" sketch:type="MSShapeGroup">
                <path d="M0,1.54089512 C7.89490094,2.59635727 11.7607403,-2.40356273 28.9670775,1.54089514 C38.7128012,4.76630097 43.9556601,6.38683871 52.0542706,17.1544562 C60.152881,27.9220737 55.8666741,37.3056193 55.8666741,37.3056193 C54.8834359,40.5952452 51.9634169,43 48.4886434,43 C44.3677238,43 41.0270584,39.6177473 41.0270584,35.4455271 C41.0270584,32.0027314 43.3017422,29.0978304 46.412504,28.1873388 C42.0216022,20.3721515 32.2286062,22.5419374 24.2268336,21.5000005 C16.225061,20.4580636 2.17435249,13.7362539 0,1.54089512 Z" id="Feather" fill="#F9C834"></path>
                <path d="M49.6956713,38.261024 C49.6956713,38.261024 53.5287243,37.9387894 53.5287243,32.9114346 C53.5287243,29.0015536 49.6956713,26.6837952 46.29801,27.8840799 C46.29801,27.8840799 43.5024392,29.7099839 42.8520443,32.9114346" id="Tail-curl" transform="translate(48.190384, 32.913834) rotate(62.000000) translate(-48.190384, -32.913834) "></path>
                <path d="M18.9824219,13.8515625 C18.9824219,13.8515625 35.3994141,11.53125 42.84375,20.0341797 C47.2597656,26.1494142 45.6640625,28.4023438 45.6640625,28.4023438" id="Vein-Copy"></path>
            </g>
            <g id="Right-Feather-lg" transform="translate(101.500000, 54.500000) scale(-1, 1) translate(-101.500000, -54.500000) translate(72.000000, 31.000000)" sketch:type="MSShapeGroup">
                <path d="M0.76171875,5.83984373 C8.69726562,6.88769528 12.5830078,1.92382813 29.8779297,5.83984375 C39.6738281,9.04199219 44.9436793,10.6508447 53.0839844,21.3408203 C61.2242895,32.0307959 56.9160156,41.3466797 56.9160156,41.3466797 C55.9277154,44.6125852 52.992663,47 49.5,47 C45.3578644,47 42,43.6421356 42,39.5 C42,36.0820292 44.2863947,33.1980746 47.4131719,32.2941483 C42.9996641,24.5353138 33.15625,26.6894541 25.1132812,25.6550302 C17.0703125,24.6206064 2.94726562,17.9472656 0.76171875,5.83984373 Z" id="Feather" stroke="#BF903C" fill="#FFD938"></path>
                <path d="M51.6956713,42.261024 C51.6956713,42.261024 55.5287243,41.9387894 55.5287243,36.9114346 C55.5287243,33.0015536 51.6956713,30.6837952 48.29801,31.8840799 C48.29801,31.8840799 45.5024392,33.7099839 44.8520443,36.9114346" id="Tail-curl" stroke="#BF903C" transform="translate(50.190384, 36.913834) rotate(62.000000) translate(-50.190384, -36.913834) "></path>
                <path d="M21.0175781,17.8515625 C21.0175781,17.8515625 37.4345703,15.53125 44.8789062,24.0341797 C49.2949219,30.1494142 47.6992188,32.4023438 47.6992188,32.4023438" id="Vein" stroke="#BF903C"></path>
                <path d="M21.2944454,4.68300802 C11.429727,-0.239519623 3.56847434,7.19594305 3.56847433,7.19594296 C8.2385543,5.99876075 10.6487173,13.8296017 21.2944454,15.1898875 C19.240827,11.5433621 16.8739475,8.98790337 21.2944454,4.68300802 Z" id="Highlight" fill="#FFEFAB" transform="translate(12.431460, 9.094406) scale(-1, 1) rotate(157.000000) translate(-12.431460, -9.094406) "></path>
            </g>
        </g>
    </g>
</svg>